<svg width="76" height="49" viewBox="0 0 76 49" fill="none" xmlns="http://www.w3.org/2000/svg">
<path fill-rule="evenodd" clip-rule="evenodd" d="M70.3988 1.00132C71.4213 1.00132 71.5074 2.02942 71.5074 2.02942V24.0545C71.4677 25.1498 72.5968 25.1893 72.6996 25.1688C73.8431 25.1098 73.7652 24.0974 73.7652 24.0974V22.5974L75 22.1692V23.7543C75 27.9115 70.1438 27.9533 70.1438 27.9533C68.4135 27.9746 67.8861 26.4034 67.8861 25.8968L67.8862 7.89329C67.8869 7.80822 67.8652 6.95751 66.7355 6.95751C65.5278 6.95751 65.628 7.98599 65.628 7.98599V16.6845L62.0497 17.884C62.1557 16.2175 61.269 16.0476 60.9601 16.0385L60.8958 16.0388C60.8706 16.0399 60.8564 16.0417 60.8564 16.0417C60.1004 16.0421 59.5782 17.0705 59.5782 17.0705C58.6161 18.8504 56.0982 19.8047 55.4645 20.0214L55.3561 20.0574C55.3312 20.0654 55.3181 20.0694 55.3181 20.0694L52.8046 20.8832C52.0382 21.0978 51.2279 21.1837 51.2279 21.1837C48.8926 21.2983 47.8623 18.8875 47.8623 18.0983V14.4988C47.8623 12.7849 46.371 13.2131 46.371 13.2131C46.371 13.2131 45.8317 13.2504 44.7951 14.1561C44.3705 14.566 44.0279 14.4559 44.0279 14.4559L43.9222 14.4204C43.5234 14.2424 43.0184 13.5685 42.9204 13.4699C42.2019 12.5225 41.7079 12.448 41.6163 12.4426L41.6009 12.4422C40.9188 12.3989 40.4504 13.0847 40.4504 13.0847C39.855 13.8276 40.0443 14.5302 40.4077 14.8415C40.4459 14.868 44.614 17.9579 44.6682 18.0128C45.6194 18.846 45.7968 20.007 45.7753 20.6693C45.8206 22.9118 43.9088 23.7092 43.1769 24.0112C43.012 24.0931 41.4749 24.5822 39.9397 25.0629L39.43 25.2223C37.9965 25.6697 36.701 26.0685 36.701 26.0685C37.0844 24.2684 35.7356 24.1829 35.6361 24.1829C35.0902 24.1377 34.6555 24.7832 34.6555 24.7832C33.1965 27.0305 30.7762 28.0064 30.6935 28.04C30.1724 28.3345 23.8353 30.2683 23.8353 30.2683C24.0248 28.546 22.9589 28.4296 22.7284 28.4245L22.6851 28.4248C22.1294 28.3819 21.9342 28.6682 21.8752 28.7679C21.8162 28.8687 20.5138 31.0373 20.4696 31.125C19.7266 32.3935 18.8933 32.0243 18.8933 32.0243C18.8933 32.0243 18.2171 31.8664 17.4444 30.8245C16.672 29.7829 15.8091 30.3463 15.6981 30.4392C13.9032 31.8873 13.3973 35.3879 13.3973 36.0945V46.5077L9.26561 47.8356V36.0945C9.22255 34.2097 7.85485 34.6498 7.6882 34.7237C7.5223 34.7976 5.00476 36.1808 5.00476 36.1808C3.98222 36.7378 3.34347 36.7378 3.34347 36.7378C1.17073 36.7807 1.04268 34.6808 1.04268 34.6808L1 13.7705C1 10.5562 3.92098 9.41876 4.15258 9.31423C4.38418 9.2097 9.97377 7.48986 11.3099 7.08556C12.6461 6.68126 14.3775 8.28389 14.3775 10.0422V15.2275L9.86168 16.6412V12.1421C9.86168 10.728 8.57712 10.6093 8.24271 10.728C7.90755 10.8471 6.32607 11.4134 6.32607 11.4134C4.78132 12.1096 4.66404 14.1135 4.66404 14.1135V31.853C4.66404 33.0957 5.68657 33.0528 5.68657 33.0528C9.86279 33.0528 9.66571 26.7054 9.77631 25.2972C9.77981 25.1891 9.78867 24.2479 9.79739 23.2423L9.80138 22.7764C9.80927 21.8466 9.8163 20.9627 9.81815 20.7291L9.81863 20.6693L13.4062 19.3877L13.3825 27.3643C13.3876 28.4879 13.8909 28.7504 14.1285 28.7444C15.9983 28.8403 16.5076 22.2924 16.5076 21.7403V18.441L20.1709 17.2841V25.4253C20.3026 26.6818 21.7546 26.6818 22.1736 26.111C23.6092 24.1336 23.8353 18.998 23.8353 18.998L23.7926 3.18669L27.5416 1.72927L27.541 1.94961C27.541 1.9784 27.5409 2.0099 27.5408 2.04403L27.5402 2.27985C27.5398 2.413 27.5394 2.56859 27.539 2.74472L27.538 3.12381C27.5335 4.88037 27.5255 8.08498 27.5177 11.5037L27.5159 12.2959C27.5156 12.4283 27.5153 12.561 27.515 12.6937L27.5132 13.491L27.5115 14.2874C27.5055 17.0695 27.5003 19.7746 27.4979 21.7524L27.4972 22.2971C27.4971 22.3844 27.4971 22.4699 27.497 22.5536L27.497 24.4351C27.4971 24.4745 27.4972 24.5114 27.4973 24.5456L27.498 24.719C27.4983 24.7658 27.4986 24.8016 27.4989 24.8257C27.4989 25.0094 27.7599 26.5228 29.3306 26.5396C31.0814 26.5088 31.16 24.9467 31.1623 24.7237L31.1622 17.4558C31.1622 15.9558 30.0128 16.1272 30.0128 16.1272V14.0277C30.8646 13.6417 31.8437 13.5558 31.8437 13.5558C33.5358 13.4826 33.9741 15.5149 33.9741 15.8703V20.6693C33.9741 22.1259 35.193 21.9113 35.3377 21.8691C35.3987 21.8512 35.8011 21.7116 36.2467 21.556L36.5843 21.438C37.0888 21.2613 37.5535 21.0978 37.5535 21.0978C38.6603 20.7122 39.001 21.9975 39.001 21.9975C39.3833 22.9831 40.038 23.0066 40.2373 22.9831C41.261 22.9592 41.7661 21.9352 41.8132 21.7836C42.1692 20.8955 41.4306 20.3699 41.4306 20.3699L37.127 17.1127C36.1496 16.3681 36.0694 14.8643 36.0628 14.6189L36.0622 14.5847C36.0622 12.0991 38.4896 11.3283 38.4896 11.3283L44.6682 9.27093L44.6689 9.59828C44.6689 9.63542 44.669 9.67432 44.6691 9.7142L44.669 10.2885C44.6688 10.3488 44.6686 10.3975 44.6682 10.4282C44.7097 11.2764 45.5537 11.3283 45.7334 11.3283C46.027 11.3283 46.4616 11.1255 46.6702 10.8997C48.2897 7.96045 51.628 7.00942 52.1079 6.88598L52.1592 6.8732L52.1658 6.87165L52.1232 8.67139C51.0558 8.74554 50.9744 9.68231 50.9721 9.93641L50.9729 9.99216L50.9733 9.99963V16.941C50.9733 18.6123 52.6873 18.6814 52.8477 18.6553C54.6051 18.5854 54.722 17.0145 54.722 16.6845V6.01527L56.2125 5.71476C57.8634 5.50607 58.3767 7.48986 58.343 8.15734L58.3421 8.53035C58.342 8.57602 58.342 8.62491 58.3419 8.67671V11.0219C58.342 11.0995 58.342 11.1766 58.342 11.2528L58.343 13.0847C58.392 14.3954 59.6951 14.2128 59.7905 14.199C61.1782 14.1815 61.9643 8.95063 61.9643 7.90013V3.65818L65.628 2.45835V3.57194C65.6128 4.60938 66.7782 4.472 66.7782 4.472C67.758 4.472 68.0138 3.48646 68.7379 2.20152C69.3355 1.13943 70.0792 1.01305 70.3198 1.00122L70.3988 1.00132ZM17.8603 8.49381C18.8954 8.49381 19.7342 9.33272 19.7342 10.3675C19.7342 11.4014 18.8954 12.2406 17.8603 12.2406C16.8259 12.2406 15.9873 11.4014 15.9873 10.3675C15.9873 9.33272 16.8259 8.49381 17.8603 8.49381Z" fill="white"/>
</svg>
